<svg xmlns="http://www.w3.org/2000/svg" width="400" height="600" viewBox="0 0 400 600">
  <defs>
    <linearGradient id="bg" x1="0%" y1="0%" x2="0%" y2="100%">
      <stop offset="0%" stop-color="#0F2027"/>
      <stop offset="50%" stop-color="#203A43"/>
      <stop offset="100%" stop-color="#2C5364"/>
    </linearGradient>
  </defs>
  <rect width="400" height="600" fill="url(#bg)"/>
  
  <path d="M 0 500 Q 100 450 200 500 T 400 500 L 400 600 L 0 600 Z" fill="#111111"/>
  <path d="M 0 530 Q 150 480 250 550 T 400 550 L 400 600 L 0 600 Z" fill="#000000"/>
  
  <rect x="150" y="350" width="100" height="150" rx="40" fill="#222222"/>
  <rect x="160" y="360" width="80" height="140" rx="30" fill="#333333"/>
  <path d="M 120 450 L 140 400 L 160 450 Z" fill="#111111" opacity="0.6"/>
  <path d="M 280 470 L 300 420 L 320 480 Z" fill="#111111" opacity="0.5"/>

  <text x="200" y="150" font-family="'Courier New', Courier, monospace" font-size="40" font-weight="bold" fill="#B2C2CF" text-anchor="middle" letter-spacing="3">GRAVE</text>
  <text x="200" y="200" font-family="'Courier New', Courier, monospace" font-size="40" font-weight="bold" fill="#B2C2CF" text-anchor="middle" letter-spacing="3">MEASURES</text>
  
  <text x="200" y="580" font-family="'Arial', sans-serif" font-size="16" font-weight="normal" fill="#e0e0e0" text-anchor="middle" letter-spacing="4">MELISSA COLLINS</text>
</svg>
